<?xml version="1.0" standalone="no"?>
<!DOCTYPE svg PUBLIC "-//W3C//DTD SVG 20010904//EN"
 "http://www.w3.org/TR/2001/REC-SVG-20010904/DTD/svg10.dtd">
<svg version="1.0" xmlns="http://www.w3.org/2000/svg"
 width="512.000000pt" height="512.000000pt" viewBox="0 0 512.000000 512.000000"
 preserveAspectRatio="xMidYMid meet">
<metadata>
Created by potrace 1.14, written by Peter Selinger 2001-2017
</metadata>
<g transform="translate(0.000000,512.000000) scale(0.100000,-0.100000)"
fill="#000000" stroke="none">
<path d="M2385 3986 c-254 -37 -445 -129 -616 -296 -188 -184 -296 -401 -356
-713 -26 -135 -26 -707 0 -847 39 -210 111 -398 208 -541 55 -83 177 -209 255
-265 371 -266 1013 -269 1417 -8 88 57 194 158 253 241 91 126 162 320 178
486 l7 67 -339 0 -339 0 -7 -62 c-27 -262 -181 -388 -476 -388 -218 0 -348 86
-419 275 -50 131 -62 231 -68 537 -4 187 -1 326 6 400 32 308 116 475 278 550
57 27 81 32 168 36 322 14 485 -112 514 -398 l6 -65 339 -3 339 -2 -7 65 c-16
157 -85 350 -173 482 -148 224 -408 385 -708 438 -126 22 -350 27 -460 11z"/>
</g>
</svg>
