<?xml version="1.0" standalone="no"?>
<!DOCTYPE svg PUBLIC "-//W3C//DTD SVG 20010904//EN"
 "http://www.w3.org/TR/2001/REC-SVG-20010904/DTD/svg10.dtd">
<svg version="1.0" xmlns="http://www.w3.org/2000/svg"
 width="512.000000pt" height="512.000000pt" viewBox="0 0 512.000000 512.000000"
 preserveAspectRatio="xMidYMid meet">
<metadata>
Created by potrace 1.14, written by Peter Selinger 2001-2017
</metadata>
<g transform="translate(0.000000,512.000000) scale(0.100000,-0.100000)"
fill="#000000" stroke="none">
<path d="M0 2560 l0 -2560 2560 0 2560 0 0 2560 0 2560 -2560 0 -2560 0 0
-2560z m2230 455 c179 -558 327 -1015 330 -1015 3 0 151 457 330 1015 l324
1015 468 0 468 0 0 -1470 0 -1470 -355 0 -355 0 0 377 c0 279 8 537 30 992 17
339 30 632 28 652 -2 28 -85 -205 -352 -992 l-349 -1029 -237 0 -237 0 -348
1023 c-191 562 -352 1029 -356 1037 -5 9 -7 -19 -3 -65 27 -402 64 -1357 64
-1652 l0 -343 -355 0 -355 0 0 1470 0 1470 468 0 467 0 325 -1015z"/>
</g>
</svg>
